<svg xmlns="http://www.w3.org/2000/svg" version="1.2" viewBox="0 0 1000 1000" width="1000" height="1000">
	<style>
		.s0 { fill: #000000 } 
	</style>
	<g id="Layer 1">
		<path id="POS" fill-rule="evenodd" class="s0" d="m161.5 566.5v89.5h-74.5v-312.5h132.5q38 0 60 11 22.5 11 32.5 35 10.5 24 10.5 64.5 0 59-23 86-22.5 26.5-72.5 26.5zm0-55.5h56q15 0 21-4.5 6-4.5 6-16.5v-64q0-12-6-16.5-6-4.5-21-4.5h-56zm194.5-11q0-66.5 12-101 12-35 41-49 29-14 85-14 56 0 85 14 29 14 41 49 12 34.5 12 101 0 66.5-12 101-12 34.5-41 48.5-29 14-85 14-56 0-85-14-29-14-41-48.5-12-34.5-12-101zm80 100h75q23 0 32-7 9-7 9-24.5v-169h-75q-23 0-32 7-9 7-9 24.5zm248.5-13q47.5 14 100 14 25.5 0 48.5-3v-60.5l-46-4q-42.5-3.5-66-13-23-9.5-33-28-10-19-10-52 0-39 10.5-61.5 11-22.5 34.5-32.5 23.5-10.5 64.5-10.5 55.5 0 109.5 12l-9.5 59.5q-24-5-43.5-6.5-19.5-2-43-2-25.5 0-42.5 2.5v61l46 3.5q40.5 3.5 64 14 24 10.5 34.5 31 10.5 20 10.5 53 0 36-12.5 58-12.5 21.5-39.5 31.5-27 10-72 10-63.5 0-115.5-15z"/>
	</g>
</svg>
